<svg xmlns="http://www.w3.org/2000/svg" style="display:none">
  <!-- Yaguará Icon Sprite — single source of truth for illustrator reference.
       Not loaded at runtime (inline SVG strings used in yaguara-engine.js).
       All icons: 24x24 viewBox, stroke-based, 2px weight. -->

  <!-- ===== MODULE ICONS ===== -->
  <symbol id="icon-familia" viewBox="0 0 24 24" fill="none" stroke="currentColor" stroke-width="2" stroke-linecap="round" stroke-linejoin="round">
    <circle cx="9" cy="7" r="3"/>
    <circle cx="17" cy="7" r="2.5"/>
    <path d="M3 21v-2a4 4 0 014-4h4a4 4 0 014 4v2"/>
    <path d="M17 11.5a3 3 0 013 3V21"/>
  </symbol>

  <symbol id="icon-sonidos" viewBox="0 0 24 24" fill="none" stroke="currentColor" stroke-width="2" stroke-linecap="round" stroke-linejoin="round">
    <path d="M6 10a6 6 0 006 6v0a6 6 0 006-6"/>
    <path d="M12 16v0a4 4 0 01-4-4V8a4 4 0 018 0v4a4 4 0 01-4 4z"/>
    <path d="M17 10a8 8 0 01.5 2"/>
    <path d="M19 8a10 10 0 01.7 4"/>
  </symbol>

  <symbol id="icon-agua" viewBox="0 0 24 24" fill="none" stroke="currentColor" stroke-width="2" stroke-linecap="round" stroke-linejoin="round">
    <path d="M12 2C12 2 5 10 5 14.5A7 7 0 0019 14.5C19 10 12 2 12 2z"/>
  </symbol>

  <symbol id="icon-casa" viewBox="0 0 24 24" fill="none" stroke="currentColor" stroke-width="2" stroke-linecap="round" stroke-linejoin="round">
    <path d="M3 10.5L12 3l9 7.5"/>
    <path d="M5 10v9a1 1 0 001 1h12a1 1 0 001-1v-9"/>
    <rect x="9" y="14" width="6" height="6" rx="0.5"/>
  </symbol>

  <symbol id="icon-comida" viewBox="0 0 24 24" fill="none" stroke="currentColor" stroke-width="2" stroke-linecap="round" stroke-linejoin="round">
    <circle cx="12" cy="14" r="7"/>
    <path d="M12 7V3"/>
    <path d="M15 5c0 0-1.5 2-3 2S9 5 9 5"/>
  </symbol>

  <symbol id="icon-amigos" viewBox="0 0 24 24" fill="none" stroke="currentColor" stroke-width="2" stroke-linecap="round" stroke-linejoin="round">
    <path d="M7 12h10"/>
    <path d="M7 12c-2 0-4-1.5-4-3.5S5 5 7 5s3 1.5 3 3.5"/>
    <path d="M17 12c2 0 4-1.5 4-3.5S19 5 17 5s-3 1.5-3 3.5"/>
    <path d="M7 12c-2 0-4 1.5-4 3.5S5 19 7 19s3-1.5 3-3.5"/>
    <path d="M17 12c2 0 4 1.5 4 3.5S19 19 17 19s-3-1.5-3-3.5"/>
  </symbol>

  <!-- ===== GAME TYPE ICONS ===== -->
  <symbol id="icon-pair" viewBox="0 0 24 24" fill="none" stroke="currentColor" stroke-width="2" stroke-linecap="round" stroke-linejoin="round">
    <ellipse cx="9" cy="9" rx="5" ry="4"/>
    <ellipse cx="15" cy="15" rx="5" ry="4"/>
  </symbol>

  <symbol id="icon-fill" viewBox="0 0 24 24" fill="none" stroke="currentColor" stroke-width="2" stroke-linecap="round" stroke-linejoin="round">
    <path d="M17 3l4 4-10 10H7v-4L17 3z"/>
    <path d="M4 21h16"/>
    <path d="M13 7l4 4"/>
  </symbol>

  <symbol id="icon-conjugation" viewBox="0 0 24 24" fill="none" stroke="currentColor" stroke-width="2" stroke-linecap="round" stroke-linejoin="round">
    <path d="M6 4v16"/>
    <path d="M6 12h6l4-6"/>
    <path d="M12 12l4 6"/>
  </symbol>

  <symbol id="icon-listening" viewBox="0 0 24 24" fill="none" stroke="currentColor" stroke-width="2" stroke-linecap="round" stroke-linejoin="round">
    <path d="M3 14h2a2 2 0 012 2v2a2 2 0 01-2 2H3V14z"/>
    <path d="M21 14h-2a2 2 0 00-2 2v2a2 2 0 002 2h2V14z"/>
    <path d="M3 14V10a9 9 0 0118 0v4"/>
  </symbol>

  <symbol id="icon-category" viewBox="0 0 24 24" fill="none" stroke="currentColor" stroke-width="2" stroke-linecap="round" stroke-linejoin="round">
    <rect x="3" y="3" width="8" height="8" rx="1"/>
    <rect x="13" y="3" width="8" height="8" rx="1"/>
    <rect x="3" y="13" width="8" height="8" rx="1"/>
    <rect x="13" y="13" width="8" height="8" rx="1"/>
  </symbol>

  <symbol id="icon-builder" viewBox="0 0 24 24" fill="none" stroke="currentColor" stroke-width="2" stroke-linecap="round" stroke-linejoin="round">
    <rect x="2" y="16" width="8" height="5" rx="0.5"/>
    <rect x="8" y="16" width="8" height="5" rx="0.5"/>
    <rect x="14" y="16" width="8" height="5" rx="0.5"/>
    <rect x="5" y="10" width="8" height="5" rx="0.5"/>
    <rect x="11" y="10" width="8" height="5" rx="0.5"/>
    <rect x="8" y="4" width="8" height="5" rx="0.5"/>
  </symbol>

  <symbol id="icon-translation" viewBox="0 0 24 24" fill="none" stroke="currentColor" stroke-width="2" stroke-linecap="round" stroke-linejoin="round">
    <path d="M5 8h6M8 5v3m-3 4c1 2 3 4 6 4"/>
    <path d="M14 5l3 9 3-9"/>
    <path d="M15 11h4"/>
    <path d="M2 16l4-4"/>
    <path d="M18 19l4-4"/>
  </symbol>

  <symbol id="icon-conversation" viewBox="0 0 24 24" fill="none" stroke="currentColor" stroke-width="2" stroke-linecap="round" stroke-linejoin="round">
    <path d="M21 11.5a8.38 8.38 0 01-.9 3.8 8.5 8.5 0 01-7.6 4.7 8.38 8.38 0 01-3.8-.9L3 21l1.9-5.7a8.38 8.38 0 01-.9-3.8 8.5 8.5 0 014.7-7.6 8.38 8.38 0 013.8-.9h.5a8.48 8.48 0 018 8v.5z"/>
  </symbol>

  <symbol id="icon-dictation" viewBox="0 0 24 24" fill="none" stroke="currentColor" stroke-width="2" stroke-linecap="round" stroke-linejoin="round">
    <path d="M12 1a4 4 0 014 4v6a4 4 0 01-8 0V5a4 4 0 014-4z"/>
    <path d="M19 11a7 7 0 01-14 0"/>
    <line x1="12" y1="18" x2="12" y2="23"/>
    <line x1="8" y1="23" x2="16" y2="23"/>
  </symbol>

  <symbol id="icon-story" viewBox="0 0 24 24" fill="none" stroke="currentColor" stroke-width="2" stroke-linecap="round" stroke-linejoin="round">
    <path d="M2 3h6a4 4 0 014 4v14a3 3 0 00-3-3H2z"/>
    <path d="M22 3h-6a4 4 0 00-4 4v14a3 3 0 013-3h7z"/>
  </symbol>

  <symbol id="icon-narrative" viewBox="0 0 24 24" fill="none" stroke="currentColor" stroke-width="2" stroke-linecap="round" stroke-linejoin="round">
    <path d="M14.5 2H6a2 2 0 00-2 2v16a2 2 0 002 2h12a2 2 0 002-2V7.5L14.5 2z"/>
    <polyline points="14 2 14 8 20 8"/>
    <line x1="8" y1="13" x2="16" y2="13"/>
    <line x1="8" y1="17" x2="12" y2="17"/>
  </symbol>

  <symbol id="icon-cancion" viewBox="0 0 24 24" fill="none" stroke="currentColor" stroke-width="2" stroke-linecap="round" stroke-linejoin="round">
    <path d="M9 18V5l12-2v13"/>
    <circle cx="6" cy="18" r="3"/>
    <circle cx="18" cy="16" r="3"/>
  </symbol>

  <symbol id="icon-escaperoom" viewBox="0 0 24 24" fill="none" stroke="currentColor" stroke-width="2" stroke-linecap="round" stroke-linejoin="round">
    <path d="M21 2l-2 2m-7.61 7.61a5.5 5.5 0 11-7.778 7.778 5.5 5.5 0 017.777-7.777zm0 0L15.5 7.5m0 0l3 3L22 7l-3-3m-3.5 3.5L19 4"/>
  </symbol>

  <!-- ===== FRAGMENT ICONS ===== -->
  <symbol id="icon-raiz" viewBox="0 0 24 24" fill="none" stroke="currentColor" stroke-width="2" stroke-linecap="round" stroke-linejoin="round">
    <path d="M12 2v6"/>
    <path d="M12 8c-3 3-6 8-6 12"/>
    <path d="M12 8c3 3 6 8 6 12"/>
    <path d="M12 8c-1 4-1 8 0 12"/>
    <path d="M9 12c-2 1-4 3-5 5"/>
    <path d="M15 12c2 1 4 3 5 5"/>
  </symbol>

  <symbol id="icon-historia" viewBox="0 0 24 24" fill="none" stroke="currentColor" stroke-width="2" stroke-linecap="round" stroke-linejoin="round">
    <path d="M8 21h8a2 2 0 002-2V5a2 2 0 00-2-2H8a2 2 0 00-2 2v14a2 2 0 002 2z"/>
    <path d="M6 6c-1 0-2 .5-2 2v8c0 1.5 1 2 2 2"/>
    <line x1="10" y1="8" x2="14" y2="8"/>
    <line x1="10" y1="12" x2="14" y2="12"/>
  </symbol>

  <symbol id="icon-constelacion" viewBox="0 0 24 24" fill="none" stroke="currentColor" stroke-width="2" stroke-linecap="round" stroke-linejoin="round">
    <circle cx="12" cy="5" r="1.5"/>
    <circle cx="5" cy="12" r="1.5"/>
    <circle cx="19" cy="12" r="1.5"/>
    <circle cx="8" cy="19" r="1.5"/>
    <circle cx="16" cy="19" r="1.5"/>
    <line x1="12" y1="5" x2="5" y2="12"/>
    <line x1="12" y1="5" x2="19" y2="12"/>
    <line x1="5" y1="12" x2="8" y2="19"/>
    <line x1="19" y1="12" x2="16" y2="19"/>
    <line x1="8" y1="19" x2="16" y2="19"/>
  </symbol>
</svg>
